<svg xmlns="http://www.w3.org/2000/svg" viewBox="0 0 30 30" id="refresh">
  <g transform="translate(-1239.25 -341.52)scale(3.77953)">
    <path fill="#bde5f8" d="m 331.79671,91.418733 c -2.36252,-0.0021 -3.74395,2.660066 -2.38123,4.588698 1.36271,1.928633 4.33522,1.518138 5.12342,-0.707713 0.15297,-0.347076 -0.39611,-0.542737 -0.49736,-0.17723 -0.6443,1.821305 -3.07617,2.157971 -4.19165,0.580444 -1.11548,-1.577529 0.014,-3.756139 1.94682,-3.755091 0.78147,5.29e-4 1.51156,0.389212 1.94807,1.03703 l 0.39189,-0.349294 c -0.53616,-0.76111 -1.40858,-1.2148 -2.33996,-1.216844 z"></path>
    <path fill="#8acaea" d="m 334.67422,92.368134 c -0.0945,-0.04258 -0.20517,-0.02605 -0.2831,0.04231 l -0.2646,0.224977 -0.3916,0.349369 -0.4021,0.352011 c -0.1827,0.16118 -0.069,0.462804 0.1746,0.463178 h 1.0583 c 0.14613,1e-5 0.2646,-0.118489 0.2646,-0.26467 v -0.926357 c -2.2e-4,-0.103989 -0.0613,-0.198216 -0.1561,-0.240853 z"></path>
  </g>
</svg>
